<svg xmlns="http://www.w3.org/2000/svg" xmlns:xlink="http://www.w3.org/1999/xlink" width="159.039" height="50.199" viewBox="0 0 159.039 50.199">
  <defs>
    <clipPath id="clip-path">
      <rect id="長方形_11" data-name="長方形 11" width="159.039" height="50.199" fill="none"/>
    </clipPath>
  </defs>
  <g id="logo" clip-path="url(#clip-path)">
    <path id="パス_1" data-name="パス 1" d="M4.428,49.146.513,48.9,1.789,28.642,0,.247,3.915,0l1.8,28.5c0,.048.006.1.006.147s0,.094-.006.14Z" transform="translate(0 0)" fill="#38b8ef"/>
    <path id="パス_2" data-name="パス 2" d="M37.559,77.54,23.9,68.465l.5,7.931-3.915.247L19.74,64.767a1.962,1.962,0,0,1,3.044-1.757L39.73,74.272Z" transform="translate(-8.658 -27.496)" fill="#38b8ef"/>
    <path id="パス_3" data-name="パス 3" d="M21.7,22.1a1.961,1.961,0,0,1-1.957-2.085L21,0l3.915.246L23.9,16.315,35.781,8.422l2.171,3.268L22.784,21.77A1.962,1.962,0,0,1,21.7,22.1" transform="translate(-8.658 0)" fill="#38b8ef"/>
    <path id="パス_4" data-name="パス 4" d="M47.8,54.127,29.576,45.082a1.962,1.962,0,0,1,0-3.515l16.313-8.1,1.744,3.513L34.86,43.324l14.686,7.289Z" transform="translate(-12.496 -14.682)" fill="#38b8ef"/>
    <path id="パス_5" data-name="パス 5" d="M81.776,35.978H78.442l.131-13h3.334Zm4.046-6.8,3.764,5.675-3.035,1.461L82,29.423l5.057-6.761,2.715,1.311Z" transform="translate(-34.41 -9.941)" fill="#1a1311"/>
    <path id="パス_6" data-name="パス 6" d="M106.944,38.779c-.918,0-1.573-.375-1.7-1.106a4.234,4.234,0,0,1-2.641,1.087c-1.761,0-3.071-.974-3.071-2.753,0-3.128,3.277-3.239,5.562-3.54v-.524c0-.955-.619-1.067-1.012-1.067a5.427,5.427,0,0,0-2.809,1.029l-1.086-1.76a9.01,9.01,0,0,1,5.076-1.612c1.8,0,3.09.881,3.071,2.753l-.037,4.476c0,.375.131.656.561.656a3.354,3.354,0,0,0,.487-.075L109.7,38.2a11.7,11.7,0,0,1-2.753.581m-4.2-3.3a.98.98,0,0,0,1.1,1.049,1.954,1.954,0,0,0,1.218-.674l.019-1.7c-.375.019-2.341.038-2.341,1.33" transform="translate(-43.659 -12.516)" fill="#1a1311"/>
    <path id="パス_7" data-name="パス 7" d="M126.429,31.174a8.8,8.8,0,0,0-2.584-.393c-.712,0-1.161.281-1.161.749,0,.393.168.693,1.2.9,1.836.375,3.184.88,3.184,3.128,0,2.435-2.116,3.2-4.4,3.2a11.243,11.243,0,0,1-3.521-.487l.73-2.154a9.674,9.674,0,0,0,2.659.393c.712,0,1.161-.262,1.161-.749s-.168-.674-1.816-1.142c-1.592-.45-2.566-1.03-2.566-2.959,0-2.435,2.116-3.128,4.4-3.128a10.734,10.734,0,0,1,3.445.487Z" transform="translate(-52.264 -12.516)" fill="#1a1311"/>
    <path id="パス_8" data-name="パス 8" d="M145.223,35.261h-3.39l.038-6.087c0-.768-.225-1.161-1.031-1.161a2.631,2.631,0,0,0-1.554.9l-.037,6.349h-3.39l.075-14.234h3.39l-.019,4.195a13.644,13.644,0,0,1-.112,1.443,5.388,5.388,0,0,1,3.315-1.424,2.451,2.451,0,0,1,2.772,2.79Z" transform="translate(-59.596 -9.224)" fill="#1a1311"/>
    <path id="パス_9" data-name="パス 9" d="M159.213,35.26h-3.37l.037-9.795h3.39Zm-3.3-14.234h3.389V23.8h-3.389Z" transform="translate(-68.363 -9.223)" fill="#1a1311"/>
    <path id="パス_10" data-name="パス 10" d="M177.992,38.612H173.7l-.918-4.7c-.187-.918-.374-2.623-.374-2.623s-.15,1.5-.393,2.623l-.993,4.7h-4.289l-2.453-9.645,3.333-.3,1.068,4.945c.206.917.374,2.6.374,2.6s.188-1.48.431-2.6L170.5,28.8h4.215l.992,4.813c.187.88.412,2.584.412,2.6a23.5,23.5,0,0,1,.411-2.6l1.049-4.945,2.978.281Z" transform="translate(-72.065 -12.575)" fill="#1a1311"/>
    <path id="パス_11" data-name="パス 11" d="M200.725,38.779c-.918,0-1.573-.375-1.7-1.106a4.234,4.234,0,0,1-2.641,1.087c-1.761,0-3.071-.974-3.071-2.753,0-3.128,3.277-3.239,5.562-3.54v-.524c0-.955-.619-1.067-1.012-1.067a5.427,5.427,0,0,0-2.81,1.029l-1.086-1.76a9.01,9.01,0,0,1,5.076-1.612c1.8,0,3.09.881,3.071,2.753l-.037,4.476c0,.375.131.656.561.656a3.354,3.354,0,0,0,.487-.075l.356,1.854a11.7,11.7,0,0,1-2.753.581m-4.2-3.3a.98.98,0,0,0,1.1,1.049,1.954,1.954,0,0,0,1.218-.674l.019-1.7c-.375.019-2.341.038-2.341,1.33" transform="translate(-84.797 -12.516)" fill="#1a1311"/>
    <path id="パス_12" data-name="パス 12" d="M218.511,35.467a4.936,4.936,0,0,1-2.753-.619l-.3.413h-2.266l.075-14.234h3.39l-.019,3.989a9.271,9.271,0,0,1-.112,1.5,4.7,4.7,0,0,1,3.109-1.274c3.6,0,3.764,3.783,3.764,4.757,0,3.128-1.854,5.469-4.888,5.469m-.318-7.6a2.209,2.209,0,0,0-1.63,1.011l-.019,3.858a1.9,1.9,0,0,0,1.161.413c1.91,0,2.116-2.154,2.116-2.94,0-1.424-.468-2.341-1.629-2.341" transform="translate(-93.519 -9.224)" fill="#1a1311"/>
    <path id="パス_13" data-name="パス 13" d="M240.093,38.779c-.918,0-1.574-.375-1.7-1.106a4.234,4.234,0,0,1-2.641,1.087c-1.761,0-3.071-.974-3.071-2.753,0-3.128,3.277-3.239,5.562-3.54v-.524c0-.955-.619-1.067-1.012-1.067a5.425,5.425,0,0,0-2.809,1.029l-1.086-1.76a9.01,9.01,0,0,1,5.076-1.612c1.8,0,3.09.881,3.071,2.753l-.037,4.476c0,.375.131.656.561.656a3.354,3.354,0,0,0,.487-.075l.356,1.854a11.7,11.7,0,0,1-2.753.581m-4.2-3.3A.98.98,0,0,0,237,36.53a1.954,1.954,0,0,0,1.218-.674l.019-1.7c-.375.019-2.341.038-2.341,1.33" transform="translate(-102.067 -12.516)" fill="#1a1311"/>
    <path id="パス_14" data-name="パス 14" d="M259.561,31.924a8.558,8.558,0,0,0-1.049-.094,3.025,3.025,0,0,0-2.192,1.105l-.037,5.618h-3.39l.037-9.814h3.315a16.879,16.879,0,0,1-.056,1.742,3.4,3.4,0,0,1,2.828-1.948,7.273,7.273,0,0,1,.993.056Z" transform="translate(-110.935 -12.517)" fill="#1a1311"/>
    <path id="パス_15" data-name="パス 15" d="M272.621,38.779c-.918,0-1.573-.375-1.7-1.106a4.231,4.231,0,0,1-2.641,1.087c-1.76,0-3.071-.974-3.071-2.753,0-3.128,3.277-3.239,5.562-3.54v-.524c0-.955-.618-1.067-1.012-1.067a5.429,5.429,0,0,0-2.809,1.029l-1.086-1.76a9.011,9.011,0,0,1,5.076-1.612c1.8,0,3.09.881,3.071,2.753l-.037,4.476c0,.375.131.656.561.656a3.355,3.355,0,0,0,.487-.075l.356,1.854a11.707,11.707,0,0,1-2.753.581m-4.2-3.3a.98.98,0,0,0,1.1,1.049,1.954,1.954,0,0,0,1.218-.674l.019-1.7c-.374.019-2.341.038-2.341,1.33" transform="translate(-116.336 -12.516)" fill="#1a1311"/>
    <path id="パス_16" data-name="パス 16" d="M87.019,61.066a5.24,5.24,0,0,0-1.779-.262c-2.81,0-4.2,1.629-4.2,3.914,0,2.772,1.461,3.933,3.877,3.933a5.012,5.012,0,0,0,2-.413l1.011,2.473a9.866,9.866,0,0,1-3.539.73c-4.176,0-7.023-2.079-7.023-6.723,0-3.577,2.7-6.686,7.435-6.686a8.8,8.8,0,0,1,3.278.6Z" transform="translate(-33.941 -25.456)" fill="#38b8ef"/>
    <path id="パス_17" data-name="パス 17" d="M102.621,73.93c-3.352,0-5.263-1.835-5.263-5.094a5.039,5.039,0,0,1,5.357-5.131c3.352,0,5.225,1.929,5.225,5.188,0,2.865-2.042,5.037-5.319,5.037m.094-7.828c-1.424,0-1.779,1.48-1.779,2.716,0,1.592.374,2.716,1.686,2.716,1.424,0,1.76-1.405,1.76-2.641,0-1.592-.356-2.791-1.667-2.791" transform="translate(-42.707 -27.945)" fill="#38b8ef"/>
    <path id="パス_18" data-name="パス 18" d="M125.645,67.094A8.534,8.534,0,0,0,124.6,67a3.027,3.027,0,0,0-2.192,1.105l-.037,5.618h-3.389l.037-9.814h3.315a16.873,16.873,0,0,1-.056,1.742A3.4,3.4,0,0,1,125.1,63.7a7.267,7.267,0,0,1,.993.056Z" transform="translate(-52.191 -27.945)" fill="#38b8ef"/>
    <path id="パス_19" data-name="パス 19" d="M139.128,73.93a5.6,5.6,0,0,1-1.948-.318l.019.786-.019,3.746h-3.39l.075-14.234h3.241a10.151,10.151,0,0,1-.038,1.142,4.754,4.754,0,0,1,3.2-1.348c3.6,0,3.746,3.764,3.746,4.738,0,3.128-1.816,5.488-4.888,5.488m-.3-7.6a2.244,2.244,0,0,0-1.649,1.012l-.019,3.877a2.047,2.047,0,0,0,1.18.393c1.91,0,2.1-2.229,2.1-2.9,0-1.424-.45-2.378-1.61-2.378" transform="translate(-58.689 -27.945)" fill="#38b8ef"/>
    <path id="パス_20" data-name="パス 20" d="M159.437,73.93c-3.352,0-5.263-1.835-5.263-5.094a5.039,5.039,0,0,1,5.357-5.131c3.352,0,5.225,1.929,5.225,5.188,0,2.865-2.042,5.037-5.319,5.037m.094-7.828c-1.424,0-1.779,1.48-1.779,2.716,0,1.592.374,2.716,1.686,2.716,1.424,0,1.76-1.405,1.76-2.641,0-1.592-.356-2.791-1.667-2.791" transform="translate(-67.63 -27.945)" fill="#38b8ef"/>
    <path id="パス_21" data-name="パス 21" d="M182.461,67.094A8.534,8.534,0,0,0,181.412,67a3.027,3.027,0,0,0-2.192,1.105l-.037,5.618h-3.389l.037-9.814h3.315a16.7,16.7,0,0,1-.056,1.742,3.4,3.4,0,0,1,2.829-1.948,7.264,7.264,0,0,1,.992.056Z" transform="translate(-77.114 -27.945)" fill="#38b8ef"/>
    <path id="パス_22" data-name="パス 22" d="M195.989,73.949c-.918,0-1.573-.374-1.7-1.105a4.236,4.236,0,0,1-2.641,1.086c-1.761,0-3.071-.974-3.071-2.753,0-3.128,3.277-3.24,5.562-3.54v-.524c0-.955-.619-1.068-1.012-1.068a5.427,5.427,0,0,0-2.809,1.029l-1.086-1.76A9.01,9.01,0,0,1,194.3,63.7c1.8,0,3.09.881,3.071,2.753l-.037,4.476c0,.375.131.656.561.656a3.354,3.354,0,0,0,.487-.075l.356,1.854a11.67,11.67,0,0,1-2.753.582m-4.2-3.3a.98.98,0,0,0,1.1,1.049,1.956,1.956,0,0,0,1.218-.674l.019-1.7c-.375.019-2.341.038-2.341,1.33" transform="translate(-82.72 -27.944)" fill="#38b8ef"/>
    <path id="パス_23" data-name="パス 23" d="M211.329,71.584c-2.715,0-2.884-1.7-2.866-3.933l.019-3.614h-1.46V61.583H208.5l.019-3.184h3.39l-.019,3.184h2.679v2.454h-2.7l-.019,3.483c0,.843.206,1.255.955,1.255a2.588,2.588,0,0,0,1.236-.431l1.105,2.116a9.052,9.052,0,0,1-3.821,1.124" transform="translate(-90.813 -25.617)" fill="#38b8ef"/>
    <path id="パス_24" data-name="パス 24" d="M227.574,70.431H224.2l.038-9.795h3.39Zm-3.3-14.234h3.39v2.772h-3.39Z" transform="translate(-98.35 -24.651)" fill="#38b8ef"/>
    <path id="パス_25" data-name="パス 25" d="M238.374,73.93c-3.352,0-5.263-1.835-5.263-5.094a5.038,5.038,0,0,1,5.356-5.131c3.352,0,5.225,1.929,5.225,5.188,0,2.865-2.042,5.037-5.319,5.037m.094-7.828c-1.423,0-1.779,1.48-1.779,2.716,0,1.592.374,2.716,1.685,2.716,1.424,0,1.76-1.405,1.76-2.641,0-1.592-.356-2.791-1.667-2.791" transform="translate(-102.257 -27.945)" fill="#38b8ef"/>
    <path id="パス_26" data-name="パス 26" d="M264.093,73.723H260.7l.037-6.087c0-.768-.225-1.161-.993-1.161a2.541,2.541,0,0,0-1.591.9l-.038,6.349h-3.39l.056-9.813h3.278a9.586,9.586,0,0,1-.094,1.31,5.555,5.555,0,0,1,3.39-1.517,2.464,2.464,0,0,1,2.79,2.791Z" transform="translate(-111.74 -27.944)" fill="#38b8ef"/>
  </g>
</svg>
