<svg id="_レイヤー_1" xmlns="http://www.w3.org/2000/svg" viewBox="0 0 159.04 69.6"><defs><clipPath id="clippath"><path fill="none" d="M0 0h159.04v50.2H0z"/></clipPath><style>.cls-3{fill:#1a1311}.cls-4{fill:#38b8ef}.cls-6{letter-spacing:0}</style></defs><g clip-path="url(#clippath)"><g id="_グループ_237"><path id="_パス_1" class="cls-4" d="M4.43 49.15L.52 48.9 1.8 28.64 0 .25 3.91 0l1.8 28.5v.29L4.42 49.15z"/><path id="_パス_2" class="cls-4" d="M28.9 50.04l-13.66-9.08.5 7.93-3.91.25-.75-11.88a1.96 1.96 0 011.84-2.08c.43-.03.85.09 1.21.32l16.95 11.26-2.17 3.27z"/><path id="_パス_3" class="cls-4" d="M13.04 22.1c-1.08 0-1.96-.88-1.96-1.96v-.12L12.34 0l3.92.25-1.02 16.07 11.88-7.89 2.17 3.27-15.17 10.08c-.32.21-.7.33-1.08.33"/><path id="_パス_4" class="cls-4" d="M35.3 39.44L17.08 30.4a1.966 1.966 0 01-.89-2.63c.19-.38.5-.69.89-.89l16.31-8.1 1.74 3.51-12.77 6.34 14.69 7.29-1.75 3.51z"/><path id="_パス_5" class="cls-3" d="M47.37 26.04h-3.33l.13-13h3.33l-.13 13zm4.05-6.8l3.76 5.67-3.04 1.46-4.55-6.89 5.06-6.76 2.71 1.31-3.95 5.2z"/><path id="_パス_6" class="cls-3" d="M63.28 26.26c-.92 0-1.57-.38-1.7-1.11-.73.66-1.66 1.04-2.64 1.09-1.76 0-3.07-.97-3.07-2.75 0-3.13 3.28-3.24 5.56-3.54v-.52c0-.95-.62-1.07-1.01-1.07-1.01.07-1.99.43-2.81 1.03l-1.09-1.76a8.955 8.955 0 015.08-1.61c1.8 0 3.09.88 3.07 2.75l-.04 4.48c0 .38.13.66.56.66.16-.01.33-.04.49-.08l.36 1.86c-.89.3-1.82.5-2.75.58m-4.2-3.3c-.04.54.36 1.01.9 1.05h.2c.47-.07.91-.31 1.22-.67l.02-1.7c-.38.02-2.34.04-2.34 1.33"/><path id="_パス_7" class="cls-3" d="M74.17 18.66c-.84-.26-1.71-.39-2.58-.39-.71 0-1.16.28-1.16.75 0 .39.17.69 1.2.9 1.84.38 3.18.88 3.18 3.13 0 2.44-2.12 3.2-4.4 3.2-1.19.03-2.38-.14-3.52-.49l.73-2.15c.86.25 1.76.39 2.66.39.71 0 1.16-.26 1.16-.75s-.17-.67-1.82-1.14c-1.59-.45-2.57-1.03-2.57-2.96 0-2.43 2.12-3.13 4.4-3.13 1.17-.03 2.33.14 3.44.49l-.73 2.15z"/><path id="_パス_8" class="cls-3" d="M85.63 26.04h-3.39l.04-6.09c0-.77-.23-1.16-1.03-1.16-.61.11-1.16.43-1.55.9l-.04 6.35h-3.39l.07-14.23h3.39L79.71 16c-.01.48-.05.96-.11 1.44.91-.84 2.08-1.34 3.32-1.42 1.34-.19 2.58.74 2.77 2.08.03.24.03.48 0 .71l-.06 7.23z"/><path id="_パス_9" class="cls-3" d="M90.85 26.04h-3.37l.04-9.8h3.39l-.06 9.8zm-3.3-14.23h3.39v2.77h-3.39v-2.77z"/><path id="_パス_10" class="cls-3" d="M105.93 26.04h-4.29l-.92-4.7c-.19-.92-.37-2.62-.37-2.62s-.15 1.5-.39 2.62l-.99 4.7h-4.29l-2.45-9.65 3.33-.3 1.07 4.94c.21.92.37 2.6.37 2.6s.19-1.48.43-2.6l1.01-4.81h4.21l.99 4.81c.19.88.41 2.58.41 2.6.09-.87.23-1.74.41-2.6l1.05-4.94 2.98.28-2.56 9.66z"/><path id="_パス_11" class="cls-3" d="M115.93 26.26c-.92 0-1.57-.38-1.7-1.11-.73.66-1.66 1.04-2.64 1.09-1.76 0-3.07-.97-3.07-2.75 0-3.13 3.28-3.24 5.56-3.54v-.52c0-.95-.62-1.07-1.01-1.07-1.01.07-1.99.43-2.81 1.03l-1.09-1.76a8.955 8.955 0 015.08-1.61c1.8 0 3.09.88 3.07 2.75l-.04 4.48c0 .38.13.66.56.66.16-.01.33-.04.49-.08l.36 1.85c-.89.3-1.82.5-2.75.58m-4.2-3.3c-.04.54.36 1.01.9 1.05h.2c.47-.07.91-.31 1.22-.67l.02-1.7c-.38.02-2.34.04-2.34 1.33"/><path id="_パス_12" class="cls-3" d="M124.99 26.24c-.96.07-1.92-.15-2.75-.62l-.3.41h-2.27l.07-14.23h3.39l-.02 3.99c0 .5-.03 1-.11 1.5.84-.79 1.95-1.25 3.11-1.27 3.6 0 3.76 3.78 3.76 4.76 0 3.13-1.85 5.47-4.89 5.47m-.32-7.6c-.67.07-1.27.44-1.63 1.01l-.02 3.86c.33.26.74.41 1.16.41 1.91 0 2.12-2.15 2.12-2.94 0-1.42-.47-2.34-1.63-2.34"/><path id="_パス_13" class="cls-3" d="M138.03 26.26c-.92 0-1.57-.38-1.7-1.11-.73.66-1.66 1.04-2.64 1.09-1.76 0-3.07-.97-3.07-2.75 0-3.13 3.28-3.24 5.56-3.54v-.52c0-.95-.62-1.07-1.01-1.07-1.01.07-1.99.43-2.81 1.03l-1.09-1.76a8.955 8.955 0 015.08-1.61c1.8 0 3.09.88 3.07 2.75l-.04 4.48c0 .38.13.66.56.66.16-.01.33-.04.49-.08l.36 1.85c-.89.3-1.82.5-2.75.58m-4.2-3.3c-.04.54.36 1.01.9 1.06h.21c.47-.07.91-.31 1.22-.67l.02-1.7c-.38.02-2.34.04-2.34 1.33"/><path id="_パス_14" class="cls-3" d="M148.63 19.41c-.35-.05-.7-.08-1.05-.09-.85.04-1.65.44-2.19 1.11l-.04 5.62h-3.39l.04-9.81h3.32c.01.58 0 1.16-.06 1.74.52-1.11 1.6-1.86 2.83-1.95.33 0 .66.01.99.06l-.45 3.33z"/><path id="_パス_15" class="cls-3" d="M156.29 26.26c-.92 0-1.57-.38-1.7-1.11-.73.66-1.66 1.04-2.64 1.09-1.76 0-3.07-.97-3.07-2.75 0-3.13 3.28-3.24 5.56-3.54v-.52c0-.95-.62-1.07-1.01-1.07-1.01.07-1.99.43-2.81 1.03l-1.09-1.76a8.955 8.955 0 015.08-1.61c1.8 0 3.09.88 3.07 2.75l-.04 4.48c0 .38.13.66.56.66.16-.01.33-.04.49-.08l.36 1.85c-.89.3-1.82.5-2.75.58m-4.2-3.3c-.04.54.36 1.01.9 1.05h.2c.47-.07.91-.31 1.22-.67l.02-1.7c-.37.02-2.34.04-2.34 1.33"/><path id="_パス_16" class="cls-4" d="M53.08 35.61c-.57-.19-1.18-.28-1.78-.26-2.81 0-4.2 1.63-4.2 3.91 0 2.77 1.46 3.93 3.88 3.93.69 0 1.37-.14 2-.41l1.01 2.47c-1.12.46-2.32.71-3.54.73-4.18 0-7.02-2.08-7.02-6.72 0-3.58 2.7-6.69 7.43-6.69 1.12-.01 2.23.19 3.28.6l-1.06 2.43z"/><path id="_パス_17" class="cls-4" d="M59.91 45.99c-3.35 0-5.26-1.83-5.26-5.09-.06-2.78 2.15-5.08 4.94-5.14h.42c3.35 0 5.22 1.93 5.22 5.19 0 2.86-2.04 5.04-5.32 5.04m.09-7.83c-1.42 0-1.78 1.48-1.78 2.72 0 1.59.37 2.72 1.69 2.72 1.42 0 1.76-1.4 1.76-2.64 0-1.59-.36-2.79-1.67-2.79"/><path id="_パス_18" class="cls-4" d="M73.45 39.15c-.35-.05-.7-.08-1.04-.09-.85.04-1.65.44-2.19 1.11l-.04 5.62h-3.39l.04-9.81h3.32c.01.58 0 1.16-.06 1.74a3.4 3.4 0 012.82-1.95c.33 0 .66.01.99.06l-.45 3.34z"/><path id="_パス_19" class="cls-4" d="M80.44 45.99c-.66.01-1.32-.1-1.95-.32l.02.79-.02 3.75H75.1l.07-14.23h3.24c0 .38 0 .76-.04 1.14.86-.84 2-1.32 3.2-1.35 3.6 0 3.75 3.76 3.75 4.74 0 3.13-1.82 5.49-4.89 5.49m-.3-7.6c-.67.07-1.28.44-1.65 1.01l-.02 3.88c.34.25.76.39 1.18.39 1.91 0 2.1-2.23 2.1-2.9 0-1.42-.45-2.38-1.61-2.38"/><path id="_パス_20" class="cls-4" d="M91.81 45.99c-3.35 0-5.26-1.83-5.26-5.09-.06-2.78 2.15-5.08 4.94-5.14h.42c3.35 0 5.23 1.93 5.23 5.19 0 2.86-2.04 5.04-5.32 5.04m.09-7.83c-1.42 0-1.78 1.48-1.78 2.72 0 1.59.37 2.72 1.69 2.72 1.42 0 1.76-1.4 1.76-2.64 0-1.59-.36-2.79-1.67-2.79"/><path id="_パス_21" class="cls-4" d="M105.35 39.15c-.35-.05-.7-.08-1.05-.09-.85.04-1.65.44-2.19 1.11l-.04 5.62h-3.39l.04-9.81h3.32c.01.58 0 1.16-.06 1.74.52-1.11 1.6-1.86 2.83-1.95.33 0 .66.01.99.06l-.45 3.33z"/><path id="_パス_22" class="cls-4" d="M113.27 46c-.92 0-1.57-.37-1.7-1.11-.73.66-1.66 1.04-2.64 1.09-1.76 0-3.07-.97-3.07-2.75 0-3.13 3.28-3.24 5.56-3.54v-.52c0-.96-.62-1.07-1.01-1.07-1.01.07-1.99.43-2.81 1.03l-1.09-1.76a8.924 8.924 0 015.07-1.61c1.8 0 3.09.88 3.07 2.75l-.04 4.48c0 .38.13.66.56.66.16-.01.33-.04.49-.07l.36 1.85c-.89.3-1.82.5-2.75.58m-4.2-3.3c-.04.54.36 1.01.9 1.05h.2c.47-.07.91-.31 1.22-.67l.02-1.7c-.38.02-2.34.04-2.34 1.33"/><path id="_パス_23" class="cls-4" d="M120.52 45.97c-2.71 0-2.88-1.7-2.87-3.93l.02-3.61h-1.46v-2.45h1.48l.02-3.18h3.39l-.02 3.18h2.68v2.45h-2.7l-.02 3.48c0 .84.21 1.25.96 1.25.44-.04.87-.18 1.24-.43l1.1 2.12a8.992 8.992 0 01-3.82 1.12"/><path id="_パス_24" class="cls-4" d="M129.22 45.78h-3.37l.04-9.79h3.39l-.05 9.79zm-3.3-14.23h3.39v2.77h-3.39v-2.77z"/><path id="_パス_25" class="cls-4" d="M136.12 45.99c-3.35 0-5.26-1.83-5.26-5.09a5.037 5.037 0 014.93-5.14h.42c3.35 0 5.23 1.93 5.23 5.19 0 2.86-2.04 5.04-5.32 5.04m.09-7.83c-1.42 0-1.78 1.48-1.78 2.72 0 1.59.37 2.72 1.68 2.72 1.42 0 1.76-1.4 1.76-2.64 0-1.59-.36-2.79-1.67-2.79"/><path id="_パス_26" class="cls-4" d="M152.35 45.78h-3.39l.04-6.09c0-.77-.23-1.16-.99-1.16-.62.09-1.19.41-1.59.9l-.04 6.35h-3.39l.06-9.81h3.28c0 .44-.03.88-.09 1.31.92-.88 2.12-1.42 3.39-1.52a2.463 2.463 0 012.79 2.79l-.05 7.23z"/></g></g><text transform="translate(0 65.6)" style="isolation:isolate" font-family="FuturaPT-Medium,'Futura PT'" font-size="13" font-weight="500" id="Referral_Recruiting_site"><tspan class="cls-6" x="0" y="0">Refer</tspan><tspan x="27.95" y="0" letter-spacing="-.01em">r</tspan><tspan x="32.12" y="0" letter-spacing="0">al Rec</tspan><tspan x="64.38" y="0">r</tspan><tspan class="cls-6" x="68.69" y="0">uiting Site</tspan></text></svg>