<svg xmlns="http://www.w3.org/2000/svg" width="159.039" height="50.199"><defs><clipPath id="a"><path data-name="長方形 11" fill="none" d="M0 0h159.039v50.199H0z"/></clipPath></defs><g clip-path="url(#a)"><path data-name="パス 1" d="M4.428 49.146L.513 48.9l1.276-20.258L0 .247 3.915 0l1.8 28.5c0 .048.006.1.006.147s0 .094-.006.14z" fill="#38b8ef"/><path data-name="パス 2" d="M28.901 50.044l-13.659-9.075.5 7.931-3.915.247-.745-11.876a1.962 1.962 0 013.044-1.757l16.946 11.262z" fill="#38b8ef"/><path data-name="パス 3" d="M13.042 22.1a1.961 1.961 0 01-1.957-2.085L12.342 0l3.915.246-1.015 16.069 11.881-7.893 2.171 3.268-15.168 10.08a1.962 1.962 0 01-1.084.33" fill="#38b8ef"/><path data-name="パス 4" d="M35.304 39.445L17.08 30.4a1.962 1.962 0 010-3.515l16.313-8.1 1.744 3.513-12.773 6.344 14.686 7.289z" fill="#38b8ef"/><path data-name="パス 5" d="M47.366 26.037h-3.334l.131-13h3.334zm4.046-6.8l3.764 5.675-3.035 1.461-4.551-6.891 5.057-6.761 2.715 1.311z" fill="#1a1311"/><path data-name="パス 6" d="M63.285 26.263c-.918 0-1.573-.375-1.7-1.106a4.234 4.234 0 01-2.641 1.087c-1.761 0-3.071-.974-3.071-2.753 0-3.128 3.277-3.239 5.562-3.54v-.524c0-.955-.619-1.067-1.012-1.067a5.427 5.427 0 00-2.809 1.029l-1.086-1.76a9.01 9.01 0 015.076-1.612c1.8 0 3.09.881 3.071 2.753l-.037 4.476c0 .375.131.656.561.656a3.354 3.354 0 00.487-.075l.355 1.857a11.7 11.7 0 01-2.753.581m-4.2-3.3a.98.98 0 001.1 1.049 1.954 1.954 0 001.218-.674l.019-1.7c-.375.019-2.341.038-2.341 1.33" fill="#1a1311"/><path data-name="パス 7" d="M74.165 18.658a8.8 8.8 0 00-2.584-.393c-.712 0-1.161.281-1.161.749 0 .393.168.693 1.2.9 1.836.375 3.184.88 3.184 3.128 0 2.435-2.116 3.2-4.4 3.2a11.243 11.243 0 01-3.521-.487l.73-2.154a9.674 9.674 0 002.659.393c.712 0 1.161-.262 1.161-.749s-.168-.674-1.816-1.142c-1.592-.45-2.566-1.03-2.566-2.959 0-2.435 2.116-3.128 4.4-3.128a10.734 10.734 0 013.445.487z" fill="#1a1311"/><path data-name="パス 8" d="M85.627 26.037h-3.39l.038-6.087c0-.768-.225-1.161-1.031-1.161a2.631 2.631 0 00-1.554.9l-.037 6.349h-3.39l.075-14.234h3.39l-.019 4.195a13.644 13.644 0 01-.112 1.443 5.388 5.388 0 013.315-1.424 2.451 2.451 0 012.772 2.79z" fill="#1a1311"/><path data-name="パス 9" d="M90.85 26.037h-3.37l.037-9.795h3.39zm-3.3-14.234h3.389v2.774H87.55z" fill="#1a1311"/><path data-name="パス 10" d="M105.927 26.037h-4.292l-.918-4.7c-.187-.918-.374-2.623-.374-2.623s-.15 1.5-.393 2.623l-.993 4.7h-4.289l-2.453-9.645 3.333-.3 1.068 4.945c.206.917.374 2.6.374 2.6s.188-1.48.431-2.6l1.014-4.812h4.215l.992 4.813c.187.88.412 2.584.412 2.6a23.5 23.5 0 01.411-2.6l1.049-4.945 2.978.281z" fill="#1a1311"/><path data-name="パス 11" d="M115.928 26.263c-.918 0-1.573-.375-1.7-1.106a4.234 4.234 0 01-2.641 1.087c-1.761 0-3.071-.974-3.071-2.753 0-3.128 3.277-3.239 5.562-3.54v-.524c0-.955-.619-1.067-1.012-1.067a5.427 5.427 0 00-2.81 1.029l-1.086-1.76a9.01 9.01 0 015.076-1.612c1.8 0 3.09.881 3.071 2.753l-.037 4.476c0 .375.131.656.561.656a3.354 3.354 0 00.487-.075l.356 1.854a11.7 11.7 0 01-2.753.581m-4.2-3.3a.98.98 0 001.1 1.049 1.954 1.954 0 001.218-.674l.019-1.7c-.375.019-2.341.038-2.341 1.33" fill="#1a1311"/><path data-name="パス 12" d="M124.992 26.243a4.936 4.936 0 01-2.753-.619l-.3.413h-2.266l.075-14.234h3.39l-.019 3.989a9.271 9.271 0 01-.112 1.5 4.7 4.7 0 013.109-1.274c3.6 0 3.764 3.783 3.764 4.757 0 3.128-1.854 5.469-4.888 5.469m-.318-7.6a2.209 2.209 0 00-1.63 1.011l-.019 3.858a1.9 1.9 0 001.161.413c1.91 0 2.116-2.154 2.116-2.94 0-1.424-.468-2.341-1.629-2.341" fill="#1a1311"/><path data-name="パス 13" d="M138.026 26.263c-.918 0-1.574-.375-1.7-1.106a4.234 4.234 0 01-2.641 1.087c-1.761 0-3.071-.974-3.071-2.753 0-3.128 3.277-3.239 5.562-3.54v-.524c0-.955-.619-1.067-1.012-1.067a5.425 5.425 0 00-2.809 1.029l-1.086-1.76a9.01 9.01 0 015.076-1.612c1.8 0 3.09.881 3.071 2.753l-.037 4.476c0 .375.131.656.561.656a3.354 3.354 0 00.487-.075l.356 1.854a11.7 11.7 0 01-2.753.581m-4.2-3.3a.98.98 0 001.103 1.052 1.954 1.954 0 001.218-.674l.019-1.7c-.375.019-2.341.038-2.341 1.33" fill="#1a1311"/><path data-name="パス 14" d="M148.626 19.407a8.558 8.558 0 00-1.049-.094 3.025 3.025 0 00-2.192 1.105l-.037 5.618h-3.39l.037-9.814h3.315a16.879 16.879 0 01-.056 1.742 3.4 3.4 0 012.828-1.948 7.273 7.273 0 01.993.056z" fill="#1a1311"/><path data-name="パス 15" d="M156.285 26.263c-.918 0-1.573-.375-1.7-1.106a4.231 4.231 0 01-2.641 1.087c-1.76 0-3.071-.974-3.071-2.753 0-3.128 3.277-3.239 5.562-3.54v-.524c0-.955-.618-1.067-1.012-1.067a5.429 5.429 0 00-2.809 1.029l-1.086-1.76a9.011 9.011 0 015.076-1.612c1.8 0 3.09.881 3.071 2.753l-.037 4.476c0 .375.131.656.561.656a3.355 3.355 0 00.487-.075l.356 1.854a11.707 11.707 0 01-2.753.581m-4.2-3.3a.98.98 0 001.1 1.049 1.954 1.954 0 001.218-.674l.019-1.7c-.374.019-2.341.038-2.341 1.33" fill="#1a1311"/><path data-name="パス 16" d="M53.078 35.61a5.24 5.24 0 00-1.779-.262c-2.81 0-4.2 1.629-4.2 3.914 0 2.772 1.461 3.933 3.877 3.933a5.012 5.012 0 002-.413l1.011 2.473a9.866 9.866 0 01-3.539.73c-4.176 0-7.023-2.079-7.023-6.723 0-3.577 2.7-6.686 7.435-6.686a8.8 8.8 0 013.278.6z" fill="#38b8ef"/><path data-name="パス 17" d="M59.914 45.985c-3.352 0-5.263-1.835-5.263-5.094a5.039 5.039 0 015.357-5.131c3.352 0 5.225 1.929 5.225 5.188 0 2.865-2.042 5.037-5.319 5.037m.094-7.828c-1.424 0-1.779 1.48-1.779 2.716 0 1.592.374 2.716 1.686 2.716 1.424 0 1.76-1.405 1.76-2.641 0-1.592-.356-2.791-1.667-2.791" fill="#38b8ef"/><path data-name="パス 18" d="M73.454 39.149a8.534 8.534 0 00-1.045-.094 3.027 3.027 0 00-2.192 1.105l-.037 5.618h-3.389l.037-9.814h3.315a16.873 16.873 0 01-.056 1.742 3.4 3.4 0 012.822-1.951 7.267 7.267 0 01.993.056z" fill="#38b8ef"/><path data-name="パス 19" d="M80.439 45.985a5.6 5.6 0 01-1.948-.318l.019.786-.019 3.746h-3.39l.075-14.234h3.241a10.151 10.151 0 01-.038 1.142 4.754 4.754 0 013.2-1.348c3.6 0 3.746 3.764 3.746 4.738 0 3.128-1.816 5.488-4.888 5.488m-.3-7.6a2.244 2.244 0 00-1.649 1.012l-.019 3.877a2.047 2.047 0 001.18.393c1.91 0 2.1-2.229 2.1-2.9 0-1.424-.45-2.378-1.61-2.378" fill="#38b8ef"/><path data-name="パス 20" d="M91.807 45.985c-3.352 0-5.263-1.835-5.263-5.094a5.039 5.039 0 015.357-5.131c3.352 0 5.225 1.929 5.225 5.188 0 2.865-2.042 5.037-5.319 5.037m.094-7.828c-1.424 0-1.779 1.48-1.779 2.716 0 1.592.374 2.716 1.686 2.716 1.424 0 1.76-1.405 1.76-2.641 0-1.592-.356-2.791-1.667-2.791" fill="#38b8ef"/><path data-name="パス 21" d="M105.347 39.149a8.534 8.534 0 00-1.049-.094 3.027 3.027 0 00-2.192 1.105l-.037 5.618H98.68l.037-9.814h3.315a16.7 16.7 0 01-.056 1.742 3.4 3.4 0 012.829-1.948 7.264 7.264 0 01.992.056z" fill="#38b8ef"/><path data-name="パス 22" d="M113.269 46.005c-.918 0-1.573-.374-1.7-1.105a4.236 4.236 0 01-2.641 1.086c-1.761 0-3.071-.974-3.071-2.753 0-3.128 3.277-3.24 5.562-3.54v-.524c0-.955-.619-1.068-1.012-1.068a5.427 5.427 0 00-2.809 1.029l-1.086-1.76a9.01 9.01 0 015.068-1.614c1.8 0 3.09.881 3.071 2.753l-.037 4.476c0 .375.131.656.561.656a3.354 3.354 0 00.487-.075l.356 1.854a11.67 11.67 0 01-2.753.582m-4.2-3.3a.98.98 0 001.1 1.049 1.956 1.956 0 001.218-.674l.019-1.7c-.375.019-2.341.038-2.341 1.33" fill="#38b8ef"/><path data-name="パス 23" d="M120.516 45.967c-2.715 0-2.884-1.7-2.866-3.933l.019-3.614h-1.46v-2.454h1.478l.019-3.184h3.39l-.019 3.184h2.679v2.454h-2.7l-.019 3.483c0 .843.206 1.255.955 1.255a2.588 2.588 0 001.236-.431l1.105 2.116a9.052 9.052 0 01-3.821 1.124" fill="#38b8ef"/><path data-name="パス 24" d="M129.224 45.78h-3.374l.038-9.795h3.39zm-3.3-14.234h3.39v2.772h-3.39z" fill="#38b8ef"/><path data-name="パス 25" d="M136.117 45.985c-3.352 0-5.263-1.835-5.263-5.094a5.038 5.038 0 015.356-5.131c3.352 0 5.225 1.929 5.225 5.188 0 2.865-2.042 5.037-5.319 5.037m.094-7.828c-1.423 0-1.779 1.48-1.779 2.716 0 1.592.374 2.716 1.685 2.716 1.424 0 1.76-1.405 1.76-2.641 0-1.592-.356-2.791-1.667-2.791" fill="#38b8ef"/><path data-name="パス 26" d="M152.353 45.779h-3.393l.037-6.087c0-.768-.225-1.161-.993-1.161a2.541 2.541 0 00-1.591.9l-.038 6.349h-3.39l.056-9.813h3.278a9.586 9.586 0 01-.094 1.31 5.555 5.555 0 013.39-1.517 2.464 2.464 0 012.79 2.791z" fill="#38b8ef"/></g></svg>